<svg width="160" height="41" viewBox="0 0 160 41" fill="none" xmlns="http://www.w3.org/2000/svg">
<path d="M44.5781 22.1519C43.444 21.4963 42.5264 20.5227 41.9382 19.3513C41.2917 18.0479 40.9705 16.607 41.0021 15.1521C40.9713 13.6723 41.303 12.2074 41.9682 10.8855C42.5825 9.69033 43.5259 8.69633 44.6867 8.02108C45.9069 7.32806 47.2906 6.97586 48.6932 7.00128C49.5157 7.00515 50.3336 7.12376 51.1234 7.35371C51.8914 7.56558 52.6252 7.88626 53.3026 8.30602C53.9816 8.77592 54.3211 9.31706 54.3211 9.92944C54.3321 10.2561 54.2302 10.5765 54.0328 10.8368C53.95 10.9532 53.8404 11.0481 53.7134 11.1134C53.5863 11.1786 53.4454 11.2123 53.3026 11.2117C53.1032 11.209 52.9072 11.1602 52.7297 11.0692C52.5387 10.9717 52.2954 10.8293 51.9995 10.638C51.526 10.3313 51.0245 10.0701 50.5018 9.8582C49.978 9.66649 49.423 9.57492 48.8655 9.58826C48.2284 9.55182 47.5917 9.66546 47.0064 9.92005C46.4211 10.1746 45.9036 10.5631 45.4955 11.0542C44.7241 12.0165 44.3384 13.3725 44.3384 15.1221C44.3384 16.8718 44.7303 18.214 45.5142 19.1488C46.2955 20.0936 47.4076 20.566 48.8505 20.566C49.4252 20.5763 49.9968 20.4783 50.5355 20.2773C51.0581 20.0772 51.5598 19.826 52.0332 19.5275C52.2576 19.3862 52.4915 19.2609 52.7335 19.1526C52.932 19.0548 53.1489 18.9999 53.37 18.9913C53.516 18.9876 53.6606 19.0199 53.7912 19.0853C53.9217 19.1506 54.0343 19.2471 54.1189 19.3663C54.3158 19.6268 54.4176 19.947 54.4072 20.2736C54.4091 20.5613 54.3257 20.8431 54.1676 21.0834C53.9489 21.3847 53.6727 21.6396 53.355 21.8333C52.6714 22.2795 51.9203 22.6124 51.1308 22.8193C50.293 23.0518 49.4278 23.1704 48.5584 23.1717C47.1744 23.2029 45.8074 22.861 44.6005 22.1819" fill="#0B2A35"/>
<path d="M67.2163 19.0733C67.9651 18.1409 68.3396 16.7662 68.3396 14.9491C68.3396 13.132 67.9589 11.7747 67.1975 10.8774C66.4487 9.93262 65.3678 9.46022 63.9549 9.46022C63.3414 9.4266 62.7286 9.53727 62.1655 9.78337C61.6024 10.0295 61.1047 10.4041 60.7122 10.8774C59.9633 11.8222 59.5888 13.1857 59.5888 14.9678C59.5888 16.75 59.9633 18.1247 60.7122 19.092C61.4611 20.0243 62.5469 20.4905 63.9698 20.4905C65.3927 20.4905 66.4799 20.0243 67.2312 19.092L67.2163 19.0733ZM59.9483 22.0501C58.7982 21.3987 57.8686 20.4183 57.2785 19.2345C56.6309 17.9141 56.3098 16.4572 56.3424 14.9866C56.3075 13.5049 56.6285 12.0365 57.2785 10.705C57.8639 9.5199 58.788 8.5359 59.9333 7.87804C61.1744 7.22797 62.5542 6.88843 63.9549 6.88843C65.3555 6.88843 66.7353 7.22797 67.9764 7.87804C69.1265 8.52948 70.0561 9.50992 70.6462 10.6937C71.2975 12.0249 71.6198 13.4934 71.586 14.9753C71.6174 16.4463 71.2951 17.9032 70.6462 19.2232C70.0572 20.4078 69.1273 21.3885 67.9764 22.0389C66.7353 22.689 65.3555 23.0285 63.9549 23.0285C62.5542 23.0285 61.1744 22.689 59.9333 22.0389" fill="#0B2A35"/>
<path d="M84.6878 19.0395C85.4367 18.0872 85.8298 16.7263 85.8298 14.9679C85.8298 13.2095 85.4554 11.8485 84.7065 10.8924C83.9576 9.93639 82.8792 9.46024 81.4788 9.46024C80.8632 9.42749 80.2485 9.53848 79.6832 9.78443C79.1178 10.0304 78.6173 10.4046 78.2211 10.8774C77.4473 11.8223 77.0604 13.1645 77.0604 14.9041C77.0604 16.6438 77.4523 18.0072 78.2361 18.9945C78.6377 19.4545 79.1321 19.8239 79.6867 20.0784C80.2414 20.3329 80.8436 20.4666 81.4537 20.4709C82.0638 20.4751 82.6679 20.3498 83.226 20.103C83.7841 19.8563 84.2836 19.4938 84.6915 19.0395H84.6878ZM88.5633 1.3244C88.7136 1.46903 88.8312 1.64429 88.9081 1.83833C88.9849 2.03238 89.0193 2.24068 89.0089 2.44917V21.3978C89.0186 21.6049 88.9854 21.8118 88.9113 22.0054C88.8372 22.199 88.7238 22.3751 88.5782 22.5226C88.2518 22.7916 87.8421 22.9387 87.4193 22.9387C86.9965 22.9387 86.5869 22.7916 86.2604 22.5226C86.1149 22.3751 86.0015 22.199 85.9274 22.0054C85.8533 21.8118 85.8201 21.6049 85.8298 21.3978V20.1231C85.3892 21.0317 84.6791 21.782 83.7966 22.2714C82.8504 22.7847 81.7872 23.0431 80.7112 23.0212C79.4451 23.0402 78.2014 22.6856 77.1352 22.0014C76.0635 21.2954 75.2152 20.2978 74.6901 19.1258C74.0854 17.7982 73.7859 16.3517 73.8139 14.8929C73.7813 13.4336 74.0809 11.9861 74.6901 10.66C75.2075 9.50329 76.0555 8.52597 77.1271 7.85136C78.1987 7.17676 79.4459 6.8351 80.7112 6.86952C81.7826 6.84626 82.8413 7.10481 83.7816 7.61936C84.6517 8.11318 85.3545 8.85607 85.7999 9.75268V2.37794C85.7908 2.17964 85.8241 1.9817 85.8978 1.79739C85.9714 1.61309 86.0836 1.4467 86.2267 1.3094C86.5585 1.04414 86.9704 0.899658 87.395 0.899658C87.8196 0.899658 88.2315 1.04414 88.5633 1.3094" fill="#0B2A35"/>
<path d="M101.399 19.437C102.161 18.6004 102.565 17.4977 102.523 16.3664V15.5415H101.95C100.675 15.5162 99.4008 15.5901 98.1379 15.7627C97.4444 15.8314 96.7834 16.0909 96.2282 16.5126C96.032 16.7076 95.8795 16.9422 95.7807 17.2008C95.682 17.4593 95.6392 17.7359 95.6553 18.0123C95.6469 18.3665 95.7168 18.7181 95.8598 19.0422C96.0029 19.3662 96.2156 19.6546 96.4828 19.8869C97.052 20.3901 97.7908 20.6581 98.5497 20.6367C99.0842 20.6535 99.6161 20.5554 100.11 20.3491C100.603 20.1428 101.047 19.833 101.41 19.4407L101.399 19.437ZM104.129 8.44422C105.127 9.48651 105.627 11.0674 105.627 13.187V21.4353C105.639 21.6411 105.609 21.8471 105.538 22.0407C105.467 22.2342 105.357 22.411 105.215 22.5601C104.901 22.8405 104.489 22.9848 104.069 22.9613C103.865 22.9758 103.66 22.9462 103.468 22.8744C103.276 22.8026 103.102 22.6903 102.958 22.5452C102.813 22.4001 102.702 22.2256 102.63 22.0334C102.559 21.8412 102.53 21.636 102.545 21.4316V20.2506C102.173 21.1054 101.545 21.8233 100.748 22.3051C99.9032 22.7938 98.9407 23.0402 97.9656 23.0175C96.9982 23.0289 96.0411 22.8172 95.1685 22.3989C94.3577 22.0162 93.6693 21.4151 93.1802 20.663C92.7046 19.9234 92.456 19.0605 92.465 18.181C92.4107 17.2158 92.7238 16.2659 93.3412 15.5228C93.9254 14.8779 94.8889 14.4167 96.2319 14.1393C98.0642 13.824 99.9225 13.6859 101.781 13.7269H102.511V12.8008C102.511 11.6161 102.268 10.7537 101.781 10.2251C101.294 9.69646 100.508 9.42652 99.4297 9.42652C98.7194 9.42281 98.0121 9.52001 97.3291 9.71521C96.5892 9.93692 95.867 10.2139 95.1685 10.5438C94.8027 10.7848 94.3908 10.9469 93.9591 11.0199C93.8115 11.0237 93.6649 10.9944 93.5301 10.9341C93.3954 10.8737 93.2758 10.7839 93.1802 10.6713C92.9758 10.42 92.8693 10.1029 92.8807 9.77895C92.8758 9.47577 92.9705 9.17938 93.1503 8.93537C93.3904 8.64076 93.6871 8.39728 94.0227 8.21927C94.8507 7.78331 95.7318 7.45689 96.6438 7.24821C97.5889 7.00766 98.5594 6.88178 99.5345 6.87329C101.589 6.87329 103.12 7.39318 104.129 8.43297" fill="#0B2A35"/>
<path d="M120.474 19.0095C121.245 18.0347 121.631 16.6663 121.631 14.9041C121.631 13.142 121.25 11.7998 120.489 10.8775C120.096 10.4042 119.599 10.0295 119.035 9.7834C118.472 9.5373 117.86 9.42663 117.246 9.46025C115.846 9.46025 114.77 9.93765 114.018 10.8925C113.267 11.8473 112.893 13.2057 112.895 14.9679C112.895 16.7263 113.269 18.0872 114.018 19.0395C114.767 19.9918 115.846 20.4718 117.246 20.4718C117.861 20.5009 118.475 20.3836 119.036 20.1294C119.597 19.8753 120.09 19.4915 120.474 19.0095ZM121.597 7.86683C122.657 8.55179 123.502 9.52438 124.031 10.6713C124.637 11.9982 124.935 13.4453 124.903 14.9041C124.93 16.3585 124.633 17.8005 124.035 19.1258C123.505 20.2929 122.656 21.286 121.586 21.9902C120.519 22.673 119.276 23.0264 118.01 23.0062C116.934 23.0281 115.871 22.7697 114.925 22.2564C114.042 21.767 113.332 21.0168 112.891 20.1081V21.3828C112.9 21.5898 112.866 21.7963 112.792 21.9897C112.718 22.1831 112.605 22.3593 112.461 22.5076C112.307 22.6545 112.124 22.7685 111.925 22.8427C111.725 22.9168 111.512 22.9495 111.3 22.9387C111.085 22.9481 110.871 22.9148 110.669 22.8408C110.467 22.7668 110.282 22.6536 110.124 22.5076C109.976 22.3614 109.86 22.1858 109.783 21.9922C109.706 21.7985 109.671 21.591 109.679 21.3828V2.44168C109.668 2.23147 109.704 2.02152 109.784 1.82701C109.865 1.63249 109.987 1.45826 110.143 1.31691C110.474 1.03413 110.899 0.88684 111.334 0.904499C111.745 0.887512 112.147 1.02983 112.457 1.30192C112.601 1.43858 112.714 1.60477 112.789 1.78916C112.863 1.97355 112.897 2.17182 112.888 2.37045V9.80893C113.331 8.89829 114.04 8.1439 114.921 7.64562C115.865 7.12751 116.93 6.86881 118.006 6.89577C119.274 6.86973 120.522 7.21083 121.601 7.87807" fill="#0B2A35"/>
<path d="M138.799 19.0732C139.548 18.1409 139.922 16.7662 139.922 14.9491C139.922 13.1319 139.543 11.7747 138.784 10.8774C138.392 10.4052 137.896 10.0311 137.334 9.78508C136.772 9.53902 136.161 9.42777 135.549 9.4602C134.148 9.4602 133.067 9.9326 132.306 10.8774C131.545 11.8222 131.163 13.1857 131.16 14.9678C131.16 16.7725 131.535 18.1472 132.283 19.092C133.032 20.0368 134.121 20.4967 135.549 20.4717C136.967 20.4717 138.052 20.0055 138.806 19.0732H138.799ZM131.527 22.0314C130.375 21.3821 129.445 20.4011 128.857 19.2157C128.208 17.8957 127.886 16.4388 127.917 14.9678C127.884 13.4858 128.206 12.0174 128.857 10.6862C129.445 9.50544 130.373 8.52756 131.52 7.87802C132.76 7.22797 134.139 6.88843 135.539 6.88843C136.939 6.88843 138.318 7.22797 139.559 7.87802C140.71 8.52924 141.641 9.50963 142.232 10.6937C142.882 12.0252 143.203 13.4936 143.169 14.9753C143.201 16.446 142.88 17.9029 142.232 19.2232C141.642 20.4081 140.711 21.3888 139.559 22.0389C138.318 22.6889 136.939 23.0285 135.539 23.0285C134.139 23.0285 132.76 22.6889 131.52 22.0389" fill="#0B2A35"/>
<path d="M160 21.4917C160.003 21.6842 159.967 21.8753 159.894 22.0533C159.82 22.2313 159.711 22.3923 159.573 22.5264C159.439 22.6646 159.278 22.774 159.101 22.8481C158.923 22.9222 158.732 22.9595 158.54 22.9576C158.325 22.9532 158.113 22.9023 157.919 22.8085C157.725 22.7147 157.554 22.5801 157.417 22.414L152.549 16.9401L147.715 22.414C147.578 22.5801 147.406 22.7147 147.212 22.8085C147.018 22.9023 146.807 22.9532 146.591 22.9576C146.401 22.9545 146.214 22.9123 146.04 22.8336C145.867 22.7549 145.712 22.6414 145.584 22.5002C145.447 22.3622 145.339 22.1984 145.266 22.0182C145.192 21.838 145.155 21.645 145.157 21.4504C145.157 21.0452 145.316 20.6561 145.599 20.3669L150.624 14.8293L145.854 9.52411C145.566 9.23487 145.396 8.84847 145.378 8.44058C145.377 8.24655 145.415 8.0543 145.492 7.87612C145.569 7.69794 145.682 7.53775 145.824 7.40579C145.957 7.27052 146.115 7.16307 146.29 7.0897C146.465 7.01632 146.653 6.97848 146.842 6.97838C147.057 6.98357 147.268 7.03439 147.462 7.12746C147.656 7.22054 147.827 7.35375 147.966 7.51827L152.564 12.7522L157.173 7.50327C157.314 7.33733 157.489 7.20337 157.686 7.11029C157.883 7.01721 158.098 6.96713 158.315 6.96338C158.505 6.96348 158.692 7.00133 158.867 7.0747C159.042 7.14808 159.201 7.25552 159.334 7.39079C159.476 7.52275 159.589 7.68294 159.666 7.86112C159.742 8.0393 159.781 8.23155 159.779 8.42558C159.777 8.62931 159.733 8.83047 159.651 9.01676C159.569 9.20305 159.449 9.37057 159.3 9.50911L154.533 14.8405L159.513 20.3781C159.666 20.5227 159.787 20.6973 159.869 20.8908C159.95 21.0844 159.991 21.2927 159.989 21.5029" fill="#0B2A35"/>
<path d="M8.61221 19.5571L16.1011 23.8799V25.3796C16.101 25.6494 16.0301 25.9145 15.8953 26.1481C15.7605 26.3818 15.5667 26.5758 15.3334 26.7107C15.1 26.8456 14.8353 26.9166 14.5658 26.9166C14.2963 26.9165 14.0316 26.8455 13.7983 26.7106L5.38076 21.8366C4.68133 21.434 4.09957 20.8549 3.69353 20.1569C3.28748 19.4589 3.07135 18.6664 3.06669 17.8587V8.68429C3.06712 8.41503 3.13817 8.1506 3.27274 7.91748C3.40731 7.68436 3.60067 7.49072 3.83348 7.35594C4.06628 7.22117 4.33036 7.14999 4.59928 7.14953C4.86819 7.14906 5.13251 7.21934 5.36578 7.35331L6.30563 7.89695V15.5679C6.30869 16.3766 6.52324 17.1704 6.92792 17.8703C7.3326 18.5702 7.91329 19.1517 8.61221 19.5571ZM16.85 10.4464L6.901 4.69511C6.20156 4.29121 5.40831 4.07868 4.60089 4.07886C3.79347 4.07904 3.0003 4.29192 2.30105 4.69613C1.60179 5.10034 1.02106 5.68165 0.617159 6.38169C0.21326 7.08172 0.000416288 7.87584 0 8.68429L0 17.8587C0.00201958 19.2063 0.357196 20.5298 1.03004 21.697C1.70289 22.8641 2.66985 23.834 3.8343 24.5098L12.2518 29.3838C12.9521 29.7882 13.7463 30.0007 14.5547 30.0001C15.3631 29.9994 16.157 29.7855 16.8566 29.38C17.5562 28.9744 18.1368 28.3915 18.5399 27.6899C18.9429 26.9883 19.1544 26.1928 19.1528 25.3834V22.9989C19.1529 22.7211 19.0782 22.4484 18.9365 22.2095C18.7948 21.9707 18.5914 21.7745 18.3477 21.6416L10.1399 16.8951C9.91037 16.7585 9.72048 16.5641 9.58911 16.3313C9.45774 16.0985 9.38946 15.8353 9.39105 15.5679V9.67034L15.3185 13.1271C15.5516 13.2579 15.7465 13.4475 15.8838 13.677C16.0211 13.9066 16.096 14.1681 16.1011 14.4356V17.2963C16.0908 17.5043 16.1229 17.7122 16.1953 17.9074C16.2677 18.1027 16.379 18.2811 16.5224 18.432C16.6658 18.5828 16.8383 18.7029 17.0295 18.785C17.2206 18.867 17.4264 18.9094 17.6344 18.9094C17.8424 18.9094 18.0482 18.867 18.2394 18.785C18.4306 18.7029 18.6031 18.5828 18.7465 18.432C18.8899 18.2811 19.0011 18.1027 19.0736 17.9074C19.146 17.7122 19.178 17.5043 19.1678 17.2963V14.4356C19.1643 13.6257 18.9484 12.8308 18.5416 12.1307C18.1348 11.4306 17.5515 10.8498 16.85 10.4464Z" fill="#0D52FF"/>
<path d="M21.6244 5.49363L13.2069 0.619628C12.5093 0.212548 11.7161 -0.00131171 10.9087 6.05324e-06C10.1013 0.00132382 9.30876 0.217771 8.6125 0.627127C8.33099 0.791581 8.06744 0.985097 7.82617 1.20451C8.24122 1.35048 8.64226 1.53368 9.02439 1.7519L11.6792 3.28908L20.0967 8.16309C20.7932 8.56834 21.3715 9.14913 21.7742 9.84769C22.1769 10.5462 22.3899 11.3382 22.392 12.1448V13.2321C22.4115 13.6261 22.5815 13.9976 22.867 14.2696C23.1524 14.5416 23.5313 14.6933 23.9254 14.6933C24.3194 14.6933 24.6984 14.5416 24.9838 14.2696C25.2692 13.9976 25.4393 13.6261 25.4587 13.2321V12.1448C25.456 10.7973 25.1005 9.47408 24.4277 8.30706C23.7549 7.14004 22.7884 6.16999 21.6244 5.49363Z" fill="#0D52FF"/>
<path d="M23.9234 17.6262C23.7223 17.6262 23.5232 17.6659 23.3374 17.743C23.1516 17.82 22.9827 17.933 22.8405 18.0754C22.6983 18.2178 22.5855 18.3868 22.5085 18.5728C22.4316 18.7589 22.392 18.9583 22.392 19.1597V24.3748C22.3915 24.8166 22.3489 25.2572 22.2646 25.6908C22.5746 25.5895 22.8733 25.4563 23.1558 25.2934C23.8574 24.8949 24.4407 24.317 24.8459 23.6187C25.2512 22.9204 25.4639 22.1268 25.4624 21.3192V19.1522C25.4594 18.7458 25.2959 18.3571 25.0075 18.0711C24.7191 17.7852 24.3293 17.6252 23.9234 17.6262Z" fill="#0D52FF"/>
<path d="M45.144 32.556C45.656 32.556 46.108 32.68 46.5 32.928C46.892 33.176 47.196 33.528 47.412 33.984C47.636 34.44 47.748 34.972 47.748 35.58C47.748 36.18 47.636 36.712 47.412 37.176C47.196 37.64 46.888 38 46.488 38.256C46.096 38.512 45.648 38.64 45.144 38.64C44.704 38.64 44.316 38.548 43.98 38.364C43.644 38.172 43.388 37.9 43.212 37.548V38.028C43.212 38.204 43.156 38.348 43.044 38.46C42.94 38.564 42.796 38.616 42.612 38.616C42.428 38.616 42.28 38.564 42.168 38.46C42.056 38.348 42 38.204 42 38.028V30.612C42 30.436 42.056 30.296 42.168 30.192C42.288 30.088 42.44 30.036 42.624 30.036C42.8 30.036 42.94 30.088 43.044 30.192C43.156 30.288 43.212 30.42 43.212 30.588V33.66C43.388 33.308 43.644 33.036 43.98 32.844C44.316 32.652 44.704 32.556 45.144 32.556ZM44.856 37.68C45.376 37.68 45.78 37.496 46.068 37.128C46.364 36.76 46.512 36.244 46.512 35.58C46.512 34.924 46.368 34.42 46.08 34.068C45.792 33.708 45.384 33.528 44.856 33.528C44.328 33.528 43.92 33.708 43.632 34.068C43.352 34.428 43.212 34.94 43.212 35.604C43.212 36.268 43.352 36.78 43.632 37.14C43.92 37.5 44.328 37.68 44.856 37.68Z" fill="#0B2A35" fill-opacity="0.25"/>
<path d="M53.1718 32.94C53.2198 32.82 53.2878 32.732 53.3758 32.676C53.4718 32.62 53.5718 32.592 53.6758 32.592C53.8278 32.592 53.9598 32.644 54.0718 32.748C54.1918 32.852 54.2518 32.976 54.2518 33.12C54.2518 33.2 54.2358 33.276 54.2038 33.348L50.8678 40.428C50.8198 40.54 50.7478 40.624 50.6518 40.68C50.5638 40.744 50.4678 40.776 50.3638 40.776C50.2198 40.776 50.0878 40.728 49.9678 40.632C49.8558 40.536 49.7998 40.416 49.7998 40.272C49.7998 40.208 49.8198 40.128 49.8598 40.032L50.6878 38.268L48.3718 33.348C48.3398 33.284 48.3238 33.212 48.3238 33.132C48.3238 32.98 48.3878 32.852 48.5158 32.748C48.6438 32.644 48.7878 32.592 48.9478 32.592C49.1878 32.592 49.3598 32.704 49.4638 32.928L51.3238 37.056L53.1718 32.94Z" fill="#0B2A35" fill-opacity="0.25"/>
<path d="M59.1623 38.616C58.9783 38.616 58.8302 38.56 58.7183 38.448C58.6063 38.336 58.5502 38.184 58.5502 37.992V30.66C58.5502 30.476 58.6063 30.328 58.7183 30.216C58.8302 30.096 58.9783 30.036 59.1623 30.036C59.3542 30.036 59.5063 30.092 59.6182 30.204C59.7302 30.316 59.7862 30.468 59.7862 30.66V37.992C59.7862 38.184 59.7302 38.336 59.6182 38.448C59.5142 38.56 59.3623 38.616 59.1623 38.616Z" fill="#0B2A35" fill-opacity="0.25"/>
<path d="M63.6455 38.64C62.8295 38.64 62.1615 38.472 61.6415 38.136C61.4975 38.048 61.3935 37.956 61.3295 37.86C61.2735 37.764 61.2455 37.656 61.2455 37.536C61.2455 37.408 61.2815 37.3 61.3535 37.212C61.4255 37.124 61.5175 37.08 61.6295 37.08C61.7335 37.08 61.8975 37.144 62.1215 37.272C62.3615 37.4 62.5935 37.504 62.8175 37.584C63.0495 37.664 63.3375 37.704 63.6815 37.704C64.0655 37.704 64.3655 37.636 64.5815 37.5C64.7975 37.364 64.9055 37.172 64.9055 36.924C64.9055 36.764 64.8615 36.636 64.7735 36.54C64.6935 36.444 64.5495 36.36 64.3415 36.288C64.1335 36.208 63.8255 36.124 63.4175 36.036C62.7135 35.884 62.2055 35.68 61.8935 35.424C61.5895 35.16 61.4375 34.804 61.4375 34.356C61.4375 34.012 61.5375 33.704 61.7375 33.432C61.9375 33.152 62.2135 32.936 62.5655 32.784C62.9175 32.632 63.3175 32.556 63.7655 32.556C64.0855 32.556 64.3975 32.6 64.7015 32.688C65.0055 32.768 65.2735 32.888 65.5055 33.048C65.7695 33.224 65.9015 33.428 65.9015 33.66C65.9015 33.788 65.8615 33.896 65.7815 33.984C65.7095 34.072 65.6215 34.116 65.5175 34.116C65.4455 34.116 65.3735 34.1 65.3015 34.068C65.2295 34.036 65.1335 33.984 65.0135 33.912C64.7975 33.784 64.5935 33.684 64.4015 33.612C64.2175 33.54 63.9855 33.504 63.7055 33.504C63.3695 33.504 63.0975 33.576 62.8895 33.72C62.6895 33.864 62.5895 34.06 62.5895 34.308C62.5895 34.532 62.6815 34.708 62.8655 34.836C63.0575 34.956 63.4135 35.072 63.9335 35.184C64.4695 35.296 64.8895 35.424 65.1935 35.568C65.4975 35.712 65.7135 35.892 65.8415 36.108C65.9775 36.316 66.0455 36.584 66.0455 36.912C66.0455 37.432 65.8255 37.852 65.3855 38.172C64.9535 38.484 64.3735 38.64 63.6455 38.64Z" fill="#0B2A35" fill-opacity="0.25"/>
<path d="M69.8545 32.556C70.6305 32.556 71.2065 32.752 71.5825 33.144C71.9665 33.536 72.1585 34.132 72.1585 34.932V38.04C72.1585 38.224 72.1065 38.368 72.0025 38.472C71.8985 38.568 71.7545 38.616 71.5705 38.616C71.3945 38.616 71.2545 38.564 71.1505 38.46C71.0465 38.356 70.9945 38.216 70.9945 38.04V37.596C70.8425 37.932 70.6145 38.192 70.3105 38.376C70.0145 38.552 69.6665 38.64 69.2665 38.64C68.8825 38.64 68.5305 38.564 68.2105 38.412C67.8905 38.252 67.6385 38.032 67.4545 37.752C67.2785 37.472 67.1905 37.16 67.1905 36.816C67.1905 36.392 67.2985 36.06 67.5145 35.82C67.7385 35.572 68.1025 35.396 68.6065 35.292C69.1185 35.188 69.8185 35.136 70.7065 35.136H70.9825V34.788C70.9825 34.34 70.8905 34.016 70.7065 33.816C70.5225 33.616 70.2265 33.516 69.8185 33.516C69.5385 33.516 69.2745 33.552 69.0265 33.624C68.7785 33.696 68.5065 33.8 68.2105 33.936C67.9945 34.056 67.8425 34.116 67.7545 34.116C67.6345 34.116 67.5345 34.072 67.4545 33.984C67.3825 33.896 67.3465 33.784 67.3465 33.648C67.3465 33.528 67.3785 33.424 67.4425 33.336C67.5145 33.24 67.6265 33.148 67.7785 33.06C68.0585 32.908 68.3865 32.788 68.7625 32.7C69.1385 32.604 69.5025 32.556 69.8545 32.556ZM69.4825 37.74C69.9225 37.74 70.2825 37.592 70.5625 37.296C70.8425 36.992 70.9825 36.604 70.9825 36.132V35.82H70.7665C70.1425 35.82 69.6625 35.848 69.3265 35.904C68.9905 35.96 68.7505 36.056 68.6065 36.192C68.4625 36.32 68.3905 36.508 68.3905 36.756C68.3905 37.044 68.4945 37.28 68.7025 37.464C68.9105 37.648 69.1705 37.74 69.4825 37.74Z" fill="#0B2A35" fill-opacity="0.25"/>
<path d="M76.9604 32.556C77.4724 32.556 77.9244 32.68 78.3164 32.928C78.7084 33.176 79.0124 33.528 79.2284 33.984C79.4524 34.44 79.5644 34.972 79.5644 35.58C79.5644 36.18 79.4524 36.712 79.2284 37.176C79.0124 37.64 78.7044 38 78.3044 38.256C77.9124 38.512 77.4644 38.64 76.9604 38.64C76.5204 38.64 76.1324 38.548 75.7964 38.364C75.4604 38.172 75.2044 37.9 75.0284 37.548V38.028C75.0284 38.204 74.9724 38.348 74.8604 38.46C74.7564 38.564 74.6124 38.616 74.4284 38.616C74.2444 38.616 74.0964 38.564 73.9844 38.46C73.8724 38.348 73.8164 38.204 73.8164 38.028V30.612C73.8164 30.436 73.8724 30.296 73.9844 30.192C74.1044 30.088 74.2564 30.036 74.4404 30.036C74.6164 30.036 74.7564 30.088 74.8604 30.192C74.9724 30.288 75.0284 30.42 75.0284 30.588V33.66C75.2044 33.308 75.4604 33.036 75.7964 32.844C76.1324 32.652 76.5204 32.556 76.9604 32.556ZM76.6724 37.68C77.1924 37.68 77.5964 37.496 77.8844 37.128C78.1804 36.76 78.3284 36.244 78.3284 35.58C78.3284 34.924 78.1844 34.42 77.8964 34.068C77.6084 33.708 77.2004 33.528 76.6724 33.528C76.1444 33.528 75.7364 33.708 75.4484 34.068C75.1684 34.428 75.0284 34.94 75.0284 35.604C75.0284 36.268 75.1684 36.78 75.4484 37.14C75.7364 37.5 76.1444 37.68 76.6724 37.68Z" fill="#0B2A35" fill-opacity="0.25"/>
<path d="M85.4902 37.08C85.6022 37.08 85.6943 37.124 85.7663 37.212C85.8382 37.3 85.8742 37.412 85.8742 37.548C85.8742 37.78 85.7302 37.976 85.4422 38.136C85.1623 38.296 84.8542 38.42 84.5182 38.508C84.1903 38.596 83.8743 38.64 83.5703 38.64C82.6423 38.64 81.9102 38.372 81.3742 37.836C80.8382 37.292 80.5703 36.552 80.5703 35.616C80.5703 35.016 80.6863 34.484 80.9183 34.02C81.1583 33.556 81.4902 33.196 81.9142 32.94C82.3462 32.684 82.8343 32.556 83.3783 32.556C84.1623 32.556 84.7822 32.808 85.2383 33.312C85.6943 33.816 85.9222 34.496 85.9222 35.352C85.9222 35.672 85.7783 35.832 85.4902 35.832H81.7822C81.8623 37.072 82.4583 37.692 83.5703 37.692C83.8663 37.692 84.1222 37.652 84.3382 37.572C84.5542 37.492 84.7822 37.388 85.0223 37.26C85.0462 37.244 85.1102 37.212 85.2142 37.164C85.3262 37.108 85.4183 37.08 85.4902 37.08ZM83.4023 33.444C82.9383 33.444 82.5662 33.592 82.2863 33.888C82.0063 34.184 81.8382 34.6 81.7822 35.136H84.8783C84.8543 34.592 84.7143 34.176 84.4583 33.888C84.2103 33.592 83.8583 33.444 83.4023 33.444Z" fill="#0B2A35" fill-opacity="0.25"/>
<path d="M87.8698 38.616C87.6938 38.616 87.5458 38.568 87.4258 38.472C87.3138 38.376 87.2578 38.232 87.2578 38.04V30.624C87.2578 30.432 87.3138 30.288 87.4258 30.192C87.5458 30.088 87.6938 30.036 87.8698 30.036C88.0458 30.036 88.1898 30.088 88.3018 30.192C88.4138 30.288 88.4698 30.432 88.4698 30.624V38.04C88.4698 38.232 88.4138 38.376 88.3018 38.472C88.1898 38.568 88.0458 38.616 87.8698 38.616Z" fill="#0B2A35" fill-opacity="0.25"/>
<path d="M99.8321 34.068C99.9841 34.068 100.104 34.112 100.192 34.2C100.288 34.288 100.336 34.408 100.336 34.56V37.368C100.336 37.64 100.296 37.836 100.216 37.956C100.144 38.076 99.9961 38.172 99.7721 38.244C99.4521 38.372 99.0721 38.472 98.6321 38.544C98.1921 38.616 97.7561 38.652 97.3241 38.652C96.4681 38.652 95.7281 38.48 95.1041 38.136C94.4801 37.792 94.0041 37.296 93.6761 36.648C93.3481 36 93.1841 35.224 93.1841 34.32C93.1841 33.432 93.3481 32.664 93.6761 32.016C94.0041 31.368 94.4721 30.872 95.0801 30.528C95.6961 30.176 96.4161 30 97.2401 30C97.8001 30 98.3161 30.084 98.7881 30.252C99.2681 30.412 99.6761 30.648 100.012 30.96C100.172 31.088 100.252 31.248 100.252 31.44C100.252 31.584 100.212 31.708 100.132 31.812C100.052 31.908 99.9561 31.956 99.8441 31.956C99.7721 31.956 99.7081 31.944 99.6521 31.92C99.5961 31.896 99.5241 31.856 99.4361 31.8C99.0441 31.512 98.6881 31.312 98.3681 31.2C98.0481 31.08 97.6801 31.02 97.2641 31.02C96.3521 31.02 95.6561 31.304 95.1761 31.872C94.6961 32.432 94.4561 33.248 94.4561 34.32C94.4561 35.416 94.7001 36.248 95.1881 36.816C95.6841 37.376 96.4081 37.656 97.3601 37.656C98.0001 37.656 98.6161 37.56 99.2081 37.368V35.004H97.6361C97.4761 35.004 97.3481 34.964 97.2521 34.884C97.1641 34.796 97.1201 34.68 97.1201 34.536C97.1201 34.392 97.1641 34.28 97.2521 34.2C97.3481 34.112 97.4761 34.068 97.6361 34.068H99.8321Z" fill="#0B2A35" fill-opacity="0.25"/>
<path d="M105.131 32.58C105.515 32.556 105.707 32.72 105.707 33.072C105.707 33.248 105.663 33.38 105.575 33.468C105.487 33.556 105.335 33.608 105.119 33.624L104.759 33.66C104.255 33.708 103.879 33.884 103.631 34.188C103.391 34.492 103.271 34.86 103.271 35.292V38.04C103.271 38.232 103.215 38.376 103.103 38.472C102.991 38.568 102.847 38.616 102.671 38.616C102.495 38.616 102.347 38.568 102.227 38.472C102.115 38.376 102.059 38.232 102.059 38.04V33.156C102.059 32.972 102.115 32.832 102.227 32.736C102.347 32.632 102.495 32.58 102.671 32.58C102.831 32.58 102.963 32.632 103.067 32.736C103.179 32.832 103.235 32.968 103.235 33.144V33.72C103.395 33.368 103.627 33.1 103.931 32.916C104.235 32.732 104.579 32.624 104.963 32.592L105.131 32.58Z" fill="#0B2A35" fill-opacity="0.25"/>
<path d="M108.88 38.64C108.304 38.64 107.796 38.516 107.356 38.268C106.924 38.02 106.588 37.668 106.348 37.212C106.116 36.748 106 36.212 106 35.604C106 34.988 106.116 34.452 106.348 33.996C106.588 33.532 106.924 33.176 107.356 32.928C107.796 32.68 108.304 32.556 108.88 32.556C109.456 32.556 109.96 32.68 110.392 32.928C110.832 33.176 111.168 33.532 111.4 33.996C111.64 34.452 111.76 34.988 111.76 35.604C111.76 36.212 111.64 36.748 111.4 37.212C111.168 37.668 110.832 38.02 110.392 38.268C109.96 38.516 109.456 38.64 108.88 38.64ZM108.88 37.68C109.416 37.68 109.824 37.504 110.104 37.152C110.392 36.8 110.536 36.284 110.536 35.604C110.536 34.932 110.392 34.42 110.104 34.068C109.816 33.708 109.408 33.528 108.88 33.528C108.352 33.528 107.944 33.708 107.656 34.068C107.368 34.42 107.224 34.932 107.224 35.604C107.224 36.284 107.364 36.8 107.644 37.152C107.932 37.504 108.344 37.68 108.88 37.68Z" fill="#0B2A35" fill-opacity="0.25"/>
<path d="M117.645 32.58C117.829 32.58 117.973 32.632 118.077 32.736C118.189 32.84 118.245 32.984 118.245 33.168V38.052C118.245 38.22 118.189 38.356 118.077 38.46C117.965 38.564 117.817 38.616 117.633 38.616C117.465 38.616 117.329 38.568 117.225 38.472C117.121 38.368 117.069 38.232 117.069 38.064V37.608C116.885 37.944 116.629 38.2 116.301 38.376C115.981 38.552 115.621 38.64 115.221 38.64C113.797 38.64 113.085 37.856 113.085 36.288V33.168C113.085 32.984 113.137 32.84 113.241 32.736C113.353 32.632 113.505 32.58 113.697 32.58C113.881 32.58 114.025 32.632 114.129 32.736C114.241 32.84 114.297 32.984 114.297 33.168V36.276C114.297 36.748 114.393 37.096 114.585 37.32C114.777 37.544 115.073 37.656 115.473 37.656C115.945 37.656 116.321 37.504 116.601 37.2C116.889 36.896 117.033 36.492 117.033 35.988V33.168C117.033 32.992 117.089 32.852 117.201 32.748C117.313 32.636 117.461 32.58 117.645 32.58Z" fill="#0B2A35" fill-opacity="0.25"/>
<path d="M123.085 32.556C123.589 32.556 124.037 32.684 124.429 32.94C124.829 33.196 125.137 33.556 125.353 34.02C125.577 34.484 125.689 35.02 125.689 35.628C125.689 36.228 125.581 36.756 125.365 37.212C125.149 37.668 124.841 38.02 124.441 38.268C124.049 38.516 123.597 38.64 123.085 38.64C122.645 38.64 122.257 38.548 121.921 38.364C121.585 38.172 121.329 37.9 121.153 37.548V40.224C121.153 40.392 121.097 40.524 120.985 40.62C120.881 40.724 120.741 40.776 120.565 40.776C120.381 40.776 120.229 40.724 120.109 40.62C119.997 40.516 119.941 40.376 119.941 40.2V33.168C119.941 32.992 119.997 32.852 120.109 32.748C120.221 32.636 120.369 32.58 120.553 32.58C120.729 32.58 120.873 32.636 120.985 32.748C121.097 32.852 121.153 32.992 121.153 33.168V33.66C121.329 33.308 121.585 33.036 121.921 32.844C122.257 32.652 122.645 32.556 123.085 32.556ZM122.797 37.68C123.325 37.68 123.733 37.504 124.021 37.152C124.309 36.792 124.453 36.284 124.453 35.628C124.453 34.964 124.305 34.448 124.009 34.08C123.721 33.712 123.317 33.528 122.797 33.528C122.269 33.528 121.861 33.708 121.573 34.068C121.293 34.428 121.153 34.94 121.153 35.604C121.153 36.268 121.293 36.78 121.573 37.14C121.861 37.5 122.269 37.68 122.797 37.68Z" fill="#0B2A35" fill-opacity="0.25"/>
</svg>
